<svg width="125" height="101" viewBox="0 0 125 101" fill="none" xmlns="http://www.w3.org/2000/svg">
<path opacity="0.75" d="M0.309814 100.455C27.8915 100.455 50.2822 78.0524 50.2822 50.4563C50.2822 22.8602 27.8915 0.457764 0.309814 0.457764V24.5656V100.455Z" fill="#536DFE"/>
<path opacity="0.75" d="M24.8699 100.455C52.4515 100.455 74.8423 78.0524 74.8423 50.4563C74.8423 22.8602 52.4515 0.457764 24.8699 0.457764V24.5656V100.455Z" fill="#3F51B5"/>
<path opacity="0.75" d="M49.8948 100.455C77.4764 100.455 99.8672 78.0524 99.8672 50.4563C99.8672 22.8602 77.4764 0.457764 49.8948 0.457764V24.5656V100.455Z" fill="#F44336"/>
<path opacity="0.75" d="M74.8423 100.455C102.424 100.455 124.815 78.0524 124.815 50.4563C124.815 22.8602 102.424 0.457764 74.8423 0.457764V24.5656V100.455Z" fill="#FFA000"/>
<path d="M8.65056 57.8503V55.9679V54.0856L10.5209 54.2492L12.4009 54.4137V56.2961V58.1784L10.5209 58.0139L8.65056 57.8503ZM22.7145 59.0807V57.1984V55.316L24.5848 55.4796L26.4649 55.6441V57.5265V59.4088L24.5848 59.2444L22.7145 59.0807ZM8.65056 55.4973V53.615V51.7326L10.5209 51.8963L12.4009 52.0608V53.9431V55.8255L10.5209 55.661L8.65056 55.4973ZM22.7145 56.7278V54.8454V52.9631L24.5848 53.1267L26.4649 53.2912V55.1735V57.0559L24.5848 56.8914L22.7145 56.7278ZM8.65056 53.1444V51.2621V49.3797L10.5209 49.5433L12.4009 49.7078V51.5902V53.4725L10.5209 53.308L8.65056 53.1444ZM22.7145 54.3748V52.4925V50.6101L24.5848 50.7738L26.4649 50.9382V52.8206V54.703L24.5848 54.5385L22.7145 54.3748ZM8.65056 50.7915V48.9091V47.0268L10.5209 47.1904L12.4009 47.3549V49.2372V51.1196L10.5209 50.9551L8.65056 50.7915ZM22.7145 52.0219V50.1395V48.2572L24.5848 48.4208L26.4649 48.5853V50.4677V52.35L24.5848 52.1855L22.7145 52.0219ZM8.65056 48.4385V46.5562V44.6738L10.5209 44.8374L12.4009 45.0019V46.8843V48.7666L10.5209 48.6022L8.65056 48.4385ZM15.6825 49.0537V47.1714V45.289L17.5528 45.4527L19.4329 45.6171V47.4995V49.3819L17.5528 49.2174L15.6825 49.0537ZM22.7145 49.669V47.7866V45.9043L24.5848 46.0679L26.4649 46.2324V48.1147V49.9971L24.5848 49.8326L22.7145 49.669ZM8.65056 46.0856V44.2032V42.3209L10.5209 42.4845L12.4009 42.649V44.5313V46.4137L10.5209 46.2492L8.65056 46.0856ZM14.5105 46.5983V44.7159V42.8336L16.3808 42.9972L18.2609 43.1617V45.044V46.9264L16.3808 46.7619L14.5105 46.5983ZM16.8545 46.8033V44.921V43.0386L18.7248 43.2023L20.6049 43.3667V45.2491V47.1314L18.7248 46.967L16.8545 46.8033ZM22.7145 47.316V45.4337V43.5513L24.5848 43.7149L26.4649 43.8794V45.7618V47.6441L24.5848 47.4796L22.7145 47.316ZM8.65056 43.7326V41.8503V39.9679L10.5209 40.1316L12.4009 40.296V42.1784V44.0608L10.5209 43.8963L8.65056 43.7326ZM13.3385 44.1428V42.2604V40.3781L15.2088 40.5417L17.0889 40.7062V42.5885V44.4709L15.2088 44.3064L13.3385 44.1428ZM18.0265 44.5529V42.6706V40.7882L19.8968 40.9519L21.7769 41.1163V42.9987V44.881L19.8968 44.7166L18.0265 44.5529ZM22.7145 44.9631V43.0807V41.1984L24.5848 41.362L26.4649 41.5265V43.4088V45.2912L24.5848 45.1267L22.7145 44.9631ZM8.65056 41.3797V39.4973V37.615L10.5209 37.7786L12.4009 37.9431V39.8255V41.7078L10.5209 41.5433L8.65056 41.3797ZM12.1665 41.6873V39.805V37.9226L14.0368 38.0862L15.9169 38.2507V40.1331V42.0154L14.0368 41.8509L12.1665 41.6873ZM19.1985 42.3025V40.4202V38.5378L21.0688 38.7014L22.9489 38.8659V40.7483V42.6306L21.0688 42.4662L19.1985 42.3025ZM22.7145 42.6101V40.7278V38.8454L24.5848 39.0091L26.4649 39.1735V41.0559V42.9382L24.5848 42.7738L22.7145 42.6101ZM8.65056 39.0268V37.1444V35.262L10.5209 35.4257L12.4009 35.5902V37.4725V39.3549L10.5209 39.1904L8.65056 39.0268ZM10.9945 39.2318V37.3495V35.4671L12.8649 35.6308L14.7449 35.7952V37.6776V39.5599L12.8649 39.3955L10.9945 39.2318ZM20.3705 40.0521V38.1698V36.2874L22.2408 36.451L24.1209 36.6155V38.4979V40.3802L22.2408 40.2157L20.3705 40.0521ZM22.7145 40.2572V38.3748V36.4925L24.5848 36.6561L26.4649 36.8206V38.703V40.5853L24.5848 40.4208L22.7145 40.2572ZM8.65056 36.6738V34.7915V32.9091L10.5209 33.0727L12.4009 33.2372V35.1196V37.0019L10.5209 36.8374L8.65056 36.6738ZM22.7145 37.9042V36.0219V34.1395L24.5848 34.3032L26.4649 34.4677V36.35V38.2324L24.5848 38.0679L22.7145 37.9042ZM8.65056 34.3209V32.4385V30.5562L10.5209 30.7198L12.4009 30.8843V32.7666V34.649L10.5209 34.4845L8.65056 34.3209ZM22.7145 35.5513V33.669V31.7866L24.5848 31.9502L26.4649 32.1147V33.9971V35.8794L24.5848 35.7149L22.7145 35.5513ZM32.0859 59.9006V58.0183V56.1359L33.9562 56.2995L35.8362 56.464V58.3464V60.2287L33.9562 60.0642L32.0859 59.9006ZM34.4298 60.1057V58.2233V56.341L36.3002 56.5046L38.1802 56.6691V58.5514V60.4338L36.3002 60.2693L34.4298 60.1057ZM36.7738 60.3108V58.4284V56.546L38.6441 56.7097L40.5242 56.8742V58.7565V60.6389L38.6441 60.4744L36.7738 60.3108ZM29.7419 57.3426V55.4602V53.5779L31.6122 53.7415L33.4922 53.906V55.7884V57.6707L31.6122 57.5062L29.7419 57.3426ZM39.1178 58.1629V56.2805V54.3982L40.9881 54.5618L42.8682 54.7263V56.6086V58.491L40.9881 58.3265L39.1178 58.1629ZM29.7419 54.9897V53.1073V51.2249L31.6122 51.3886L33.4922 51.5531V53.4354V55.3178L31.6122 55.1533L29.7419 54.9897ZM39.1178 55.8099V53.9276V52.0452L40.9881 52.2089L42.8682 52.3734V54.2557V56.1381L40.9881 55.9736L39.1178 55.8099ZM29.7419 52.6367V50.7544V48.872L31.6122 49.0356L33.4922 49.2001V51.0825V52.9648L31.6122 52.8003L29.7419 52.6367ZM39.1178 53.457V51.5747V49.6923L40.9881 49.8559L42.8682 50.0204V51.9028V53.7851L40.9881 53.6206L39.1178 53.457ZM29.7419 50.2838V48.4014V46.5191L31.6122 46.6827L33.4922 46.8472V48.7295V50.6119L31.6122 50.4474L29.7419 50.2838ZM39.1178 51.1041V49.2217V47.3394L40.9881 47.503L42.8682 47.6675V49.5498V51.4322L40.9881 51.2677L39.1178 51.1041ZM29.7419 47.9308V46.0485V44.1661L31.6122 44.3298L33.4922 44.4942V46.3766V48.2589L31.6122 48.0945L29.7419 47.9308ZM39.1178 48.7511V46.8688V44.9864L40.9881 45.15L42.8682 45.3145V47.1969V49.0792L40.9881 48.9148L39.1178 48.7511ZM29.7419 45.5779V43.6955V41.8132L31.6122 41.9768L33.4922 42.1413V44.0237V45.906L31.6122 45.7415L29.7419 45.5779ZM39.1178 46.3982V44.5158V42.6335L40.9881 42.7971L42.8682 42.9616V44.8439V46.7263L40.9881 46.5618L39.1178 46.3982ZM29.7419 43.2249V41.3426V39.4602L31.6122 39.6239L33.4922 39.7884V41.6707V43.5531L31.6122 43.3886L29.7419 43.2249ZM39.1178 44.0452V42.1629V40.2805L40.9881 40.4442L42.8682 40.6086V42.491V44.3734L40.9881 44.2089L39.1178 44.0452ZM29.7419 40.872V38.9897V37.1073L31.6122 37.2709L33.4922 37.4354V39.3178V41.2001L31.6122 41.0356L29.7419 40.872ZM39.1178 41.6923V39.8099V37.9276L40.9881 38.0912L42.8682 38.2557V40.1381V42.0204L40.9881 41.8559L39.1178 41.6923ZM29.7419 38.5191V36.6367V34.7544L31.6122 34.918L33.4922 35.0825V36.9648V38.8472L31.6122 38.6827L29.7419 38.5191ZM39.1178 39.3394V37.457V35.5746L40.9881 35.7383L42.8682 35.9028V37.7851V39.6675L40.9881 39.503L39.1178 39.3394ZM29.7419 36.1661V34.2838V32.4014L31.6122 32.565L33.4922 32.7295V34.6119V36.4942L31.6122 36.3298L29.7419 36.1661ZM39.1178 36.9864V35.1041V33.2217L40.9881 33.3853L42.8682 33.5498V35.4322V37.3145L40.9881 37.15L39.1178 36.9864ZM48.5075 61.3373V59.455V57.5726L50.3778 57.7362L52.2579 57.9007V59.7831V61.6654L50.3778 61.5009L48.5075 61.3373ZM48.5075 58.9844V57.102V55.2197L50.3778 55.3833L52.2579 55.5478V57.4301V59.3125L50.3778 59.148L48.5075 58.9844ZM48.5075 56.6314V54.7491V52.8667L50.3778 53.0304L52.2579 53.1948V55.0772V56.9596L50.3778 56.7951L48.5075 56.6314ZM48.5075 54.2785V52.3961V50.5138L50.3778 50.6774L52.2579 50.8419V52.7243V54.6066L50.3778 54.4421L48.5075 54.2785ZM48.5075 51.9256V50.0432V48.1608L50.3778 48.3245L52.2579 48.489V50.3713V52.2537L50.3778 52.0892L48.5075 51.9256ZM48.5075 49.5726V47.6903V45.8079L50.3778 45.9715L52.2579 46.136V48.0184V49.9007L50.3778 49.7362L48.5075 49.5726ZM48.5075 47.2197V45.3373V43.455L50.3778 43.6186L52.2579 43.7831V45.6654V47.5478L50.3778 47.3833L48.5075 47.2197ZM48.5075 44.8667V42.9844V41.102L50.3778 41.2657L52.2579 41.4301V43.3125V45.1948L50.3778 45.0304L48.5075 44.8667ZM48.5075 42.5138V40.6314V38.7491L50.3778 38.9127L52.2579 39.0772V40.9596V42.8419L50.3778 42.6774L48.5075 42.5138ZM48.5075 40.1608V38.2785V36.3961L50.3778 36.5598L52.2579 36.7243V38.6066V40.489L50.3778 40.3245L48.5075 40.1608ZM43.8195 37.3978V35.5154V33.6331L45.6898 33.7967L47.5699 33.9612V35.8435V37.7259L45.6898 37.5614L43.8195 37.3978ZM46.1635 37.6028V35.7205V33.8381L48.0338 34.0018L49.9139 34.1662V36.0486V37.9309L48.0338 37.7665L46.1635 37.6028ZM48.5075 37.8079V35.9256V34.0432L50.3778 34.2068L52.2579 34.3713V36.2537V38.136L50.3778 37.9715L48.5075 37.8079ZM50.8515 38.013V36.1306V34.2483L52.7218 34.4119L54.6019 34.5764V36.4587V38.3411L52.7218 38.1766L50.8515 38.013ZM53.1955 38.218V36.3357V34.4533L55.0658 34.617L56.9459 34.7815V36.6638V38.5462L55.0658 38.3817L53.1955 38.218ZM60.2206 62.3621V60.4797V58.5974L62.0909 58.761L63.971 58.9255V60.8078V62.6902L62.0909 62.5257L60.2206 62.3621ZM62.5646 62.5672V60.6848V58.8024L64.4349 58.9661L66.3149 59.1306V61.0129V62.8953L64.4349 62.7308L62.5646 62.5672ZM67.2525 62.9773V61.0949V59.2126L69.1228 59.3762L71.0029 59.5407V61.4231V63.3054L69.1228 63.1409L67.2525 62.9773ZM57.8766 59.8041V57.9217V56.0394L59.7469 56.203L61.627 56.3675V58.2498V60.1322L59.7469 59.9677L57.8766 59.8041ZM64.9085 60.4193V58.5369V56.6546L66.7789 56.8182L68.6589 56.9827V58.865V60.7474L66.7789 60.5829L64.9085 60.4193ZM67.2525 60.6244V58.742V56.8596L69.1228 57.0233L71.0029 57.1878V59.0701V60.9525L69.1228 60.788L67.2525 60.6244ZM57.8766 57.4511V55.5688V53.6864L59.7469 53.85L61.627 54.0145V55.8969V57.7792L59.7469 57.6148L57.8766 57.4511ZM67.2525 58.2714V56.3891V54.5067L69.1228 54.6703L71.0029 54.8348V56.7172V58.5995L69.1228 58.435L67.2525 58.2714ZM57.8766 55.0982V53.2158V51.3335L59.7469 51.4971L61.627 51.6616V53.5439V55.4263L59.7469 55.2618L57.8766 55.0982ZM67.2525 55.9185V54.0361V52.1538L69.1228 52.3174L71.0029 52.4819V54.3642V56.2466L69.1228 56.0821L67.2525 55.9185ZM57.8766 52.7452V50.8629V48.9805L59.7469 49.1442L61.627 49.3087V51.191V53.0734L59.7469 52.9089L57.8766 52.7452ZM67.2525 53.5655V51.6832V49.8008L69.1228 49.9645L71.0029 50.1289V52.0113V53.8936L69.1228 53.7292L67.2525 53.5655ZM57.8766 50.3923V48.5099V46.6276L59.7469 46.7912L61.627 46.9557V48.8381V50.7204L59.7469 50.5559L57.8766 50.3923ZM67.2525 51.2126V49.3302V47.4479L69.1228 47.6115L71.0029 47.776V49.6584V51.5407L69.1228 51.3762L67.2525 51.2126ZM57.8766 48.0394V46.157V44.2747L59.7469 44.4383L61.627 44.6028V46.4851V48.3675L59.7469 48.203L57.8766 48.0394ZM67.2525 48.8596V46.9773V45.0949L69.1228 45.2586L71.0029 45.4231V47.3054V49.1878L69.1228 49.0233L67.2525 48.8596ZM57.8766 45.6864V43.8041V41.9217L59.7469 42.0853L61.627 42.2498V44.1322V46.0145L59.7469 45.85L57.8766 45.6864ZM67.2525 46.5067V44.6244V42.742L69.1228 42.9056L71.0029 43.0701V44.9525V46.8348L69.1228 46.6703L67.2525 46.5067ZM77.8142 63.9013V62.019V60.1366L79.6845 60.3002L81.5646 60.4647V62.3471V64.2294L79.6845 64.065L77.8142 63.9013ZM80.1582 64.1064V62.224V60.3417L82.0285 60.5053L83.9086 60.6698V62.5522V64.4345L82.0285 64.27L80.1582 64.1064ZM75.4702 61.3433V59.461V57.5786L77.3405 57.7422L79.2206 57.9067V59.7891V61.6714L77.3405 61.5069L75.4702 61.3433ZM75.4702 58.9904V57.108V55.2257L77.3405 55.3893L79.2206 55.5538V57.4361V59.3185L77.3405 59.154L75.4702 58.9904ZM75.4702 56.6374V54.7551V52.8727L77.3405 53.0364L79.2206 53.2008V55.0832V56.9655L77.3405 56.8011L75.4702 56.6374ZM75.4702 54.2845V52.4021V50.5198L77.3405 50.6834L79.2206 50.8479V52.7302V54.6126L77.3405 54.4481L75.4702 54.2845ZM75.4702 51.9315V50.0492V48.1668L77.3405 48.3305L79.2206 48.495V50.3773V52.2597L77.3405 52.0952L75.4702 51.9315ZM75.4702 49.5786V47.6962V45.8139L77.3405 45.9775L79.2206 46.142V48.0244V49.9067L77.3405 49.7422L75.4702 49.5786ZM73.1262 47.0206V45.1382V43.2559L74.9965 43.4195L76.8766 43.584V45.4664V47.3487L74.9965 47.1842L73.1262 47.0206ZM75.4702 47.2257V45.3433V43.461L77.3405 43.6246L79.2206 43.7891V45.6714V47.5538L77.3405 47.3893L75.4702 47.2257ZM77.8142 47.4307V45.5484V43.666L79.6845 43.8297L81.5646 43.9941V45.8765V47.7588L79.6845 47.5944L77.8142 47.4307ZM80.1582 47.6358V45.7535V43.8711L82.0285 44.0347L83.9086 44.1992V46.0816V47.9639L82.0285 47.7994L80.1582 47.6358ZM75.4702 44.8727V42.9904V41.108L77.3405 41.2716L79.2206 41.4361V43.3185V45.2008L77.3405 45.0364L75.4702 44.8727ZM75.4702 42.5198V40.6374V38.7551L77.3405 38.9187L79.2206 39.0832V40.9655V42.8479L77.3405 42.6834L75.4702 42.5198ZM88.3553 64.8235V62.9412V61.0588L90.2256 61.2225L92.1057 61.387V63.2693V65.1517L90.2256 64.9872L88.3553 64.8235ZM90.6993 65.0286V63.1463V61.2639L92.5696 61.4275L94.4497 61.592V63.4744V65.3567L92.5696 65.1923L90.6993 65.0286ZM93.0433 65.2337V63.3513V61.469L94.9136 61.6326L96.7936 61.7971V63.6795V65.5618L94.9136 65.3973L93.0433 65.2337ZM86.0113 62.2655V60.3832V58.5008L87.8816 58.6645L89.7617 58.8289V60.7113V62.5937L87.8816 62.4292L86.0113 62.2655ZM95.3873 63.0858V61.2035V59.3211L97.2576 59.4847L99.1376 59.6492V61.5316V63.4139L97.2576 63.2495L95.3873 63.0858ZM86.0113 59.9126V58.0302V56.1479L87.8816 56.3115L89.7617 56.476V58.3584V60.2407L87.8816 60.0762L86.0113 59.9126ZM95.3873 60.7329V58.8505V56.9682L97.2576 57.1318L99.1376 57.2963V59.1786V61.061L97.2576 60.8965L95.3873 60.7329ZM86.0113 57.5597V55.6773V53.7949L87.8816 53.9586L89.7617 54.1231V56.0054V57.8878L87.8816 57.7233L86.0113 57.5597ZM95.3873 58.3799V56.4976V54.6152L97.2576 54.7789L99.1376 54.9434V56.8257V58.7081L97.2576 58.5436L95.3873 58.3799ZM86.0113 55.2067V53.3244V51.442L87.8816 51.6056L89.7617 51.7701V53.6525V55.5348L87.8816 55.3703L86.0113 55.2067ZM95.3873 56.027V54.1446V52.2623L97.2576 52.4259L99.1376 52.5904V54.4728V56.3551L97.2576 56.1906L95.3873 56.027ZM86.0113 52.8538V50.9714V49.0891L87.8816 49.2527L89.7617 49.4172V51.2995V53.1819L87.8816 53.0174L86.0113 52.8538ZM95.3873 53.6741V51.7917V49.9094L97.2576 50.073L99.1376 50.2375V52.1198V54.0022L97.2576 53.8377L95.3873 53.6741ZM86.0113 50.5008V48.6185V46.7361L87.8816 46.8998L89.7617 47.0642V48.9466V50.8289L87.8816 50.6645L86.0113 50.5008ZM95.3873 51.3211V49.4388V47.5564L97.2576 47.72L99.1376 47.8845V49.7669V51.6492L97.2576 51.4847L95.3873 51.3211ZM88.3553 48.353V46.4706V44.5883L90.2256 44.7519L92.1057 44.9164V46.7987V48.6811L90.2256 48.5166L88.3553 48.353ZM90.6993 48.558V46.6757V44.7933L92.5696 44.957L94.4497 45.1214V47.0038V48.8861L92.5696 48.7217L90.6993 48.558ZM93.0433 48.7631V46.8808V44.9984L94.9136 45.162L96.7936 45.3265V47.2089V49.0912L94.9136 48.9267L93.0433 48.7631ZM102.433 66.0552V64.1728V62.2905L104.303 62.4541L106.183 62.6186V64.5009V66.3833L104.303 66.2188L102.433 66.0552ZM102.433 63.7022V61.8199V59.9375L104.303 60.1012L106.183 60.2657V62.148V64.0304L104.303 63.8659L102.433 63.7022ZM102.433 61.3493V59.4669V57.5846L104.303 57.7482L106.183 57.9127V59.7951V61.6774L104.303 61.5129L102.433 61.3493ZM102.433 58.9964V57.114V55.2317L104.303 55.3953L106.183 55.5598V57.4421V59.3245L104.303 59.16L102.433 58.9964ZM102.433 56.6434V54.7611V52.8787L104.303 53.0423L106.183 53.2068V55.0892V56.9715L104.303 56.807L102.433 56.6434ZM102.433 54.2905V52.4081V50.5258L104.303 50.6894L106.183 50.8539V52.7362V54.6186L104.303 54.4541L102.433 54.2905ZM109.465 54.9057V53.0233V51.141L111.335 51.3046L113.215 51.4691V53.3515V55.2338L111.335 55.0693L109.465 54.9057ZM102.433 51.9375V50.0552V48.1728L104.303 48.3365L106.183 48.5009V50.3833V52.2657L104.303 52.1012L102.433 51.9375ZM109.465 52.5528V50.6704V48.788L111.335 48.9517L113.215 49.1162V50.9985V52.8809L111.335 52.7164L109.465 52.5528ZM104.777 49.7897V47.9073V46.025L106.647 46.1886L108.527 46.3531V48.2354V50.1178L106.647 49.9533L104.777 49.7897ZM107.121 49.9947V48.1124V46.23L108.991 46.3937L110.871 46.5581V48.4405V50.3229L108.991 50.1584L107.121 49.9947Z" fill="#FFFDE7"/>
</svg>
