<svg width="79" height="28" viewBox="0 0 79 28" fill="none" xmlns="http://www.w3.org/2000/svg">
<path d="M0.237918 20.6377V19.226V17.8142L1.64065 17.9369L3.0507 18.0603V19.472V20.8838L1.64065 20.7604L0.237918 20.6377ZM10.7859 21.5605V20.1488V18.737L12.1886 18.8597L13.5986 18.9831V20.3949V21.8066L12.1886 21.6833L10.7859 21.5605ZM0.237918 18.873V17.4612V16.0495L1.64065 16.1722L3.0507 16.2956V17.7073V19.1191L1.64065 18.9957L0.237918 18.873ZM10.7859 19.7958V18.3841V16.9723L12.1886 17.095L13.5986 17.2184V18.6302V20.0419L12.1886 19.9186L10.7859 19.7958ZM0.237918 17.1083V15.6965V14.2848L1.64065 14.4075L3.0507 14.5309V15.9426V17.3544L1.64065 17.231L0.237918 17.1083ZM10.7859 18.0311V16.6194V15.2076L12.1886 15.3303L13.5986 15.4537V16.8655V18.2772L12.1886 18.1539L10.7859 18.0311ZM0.237918 15.3436V13.9318V12.5201L1.64065 12.6428L3.0507 12.7662V14.1779V15.5897L1.64065 15.4663L0.237918 15.3436ZM10.7859 16.2664V14.8547V13.4429L12.1886 13.5656L13.5986 13.689V15.1007V16.5125L12.1886 16.3891L10.7859 16.2664ZM0.237918 13.5789V12.1671V10.7554L1.64065 10.8781L3.0507 11.0014V12.4132V13.825L1.64065 13.7016L0.237918 13.5789ZM5.51189 14.0403V12.6285V11.2168L6.91462 11.3395L8.32468 11.4629V12.8746V14.2864L6.91462 14.163L5.51189 14.0403ZM10.7859 14.5017V13.09V11.6782L12.1886 11.8009L13.5986 11.9243V13.336V14.7478L12.1886 14.6244L10.7859 14.5017ZM0.237918 11.8142V10.4024V8.99066L1.64065 9.11338L3.0507 9.23674V10.6485V12.0603L1.64065 11.9369L0.237918 11.8142ZM4.6329 12.1987V10.7869V9.37517L6.03563 9.49789L7.44568 9.62125V11.033V12.4448L6.03563 12.3214L4.6329 12.1987ZM6.39089 12.3525V10.9407V9.52897L7.79362 9.65169L9.20367 9.77506V11.1868V12.5986L7.79362 12.4752L6.39089 12.3525ZM10.7859 12.737V11.3252V9.91348L12.1886 10.0362L13.5986 10.1596V11.5713V12.9831L12.1886 12.8597L10.7859 12.737ZM0.237918 10.0495V8.63771V7.22595L1.64065 7.34867L3.0507 7.47204V8.8838V10.2956L1.64065 10.1722L0.237918 10.0495ZM3.7539 10.3571V8.94532V7.53356L5.15663 7.65628L6.56669 7.77965V9.19141V10.6032L5.15663 10.4798L3.7539 10.3571ZM7.26988 10.6647V9.25293V7.84117L8.67261 7.96389L10.0827 8.08725V9.49902V10.9108L8.67261 10.7874L7.26988 10.6647ZM10.7859 10.9723V9.56054V8.14878L12.1886 8.2715L13.5986 8.39486V9.80663V11.2184L12.1886 11.095L10.7859 10.9723ZM0.237918 8.28477V6.87301V5.46124L1.64065 5.58397L3.0507 5.70733V7.1191V8.53086L1.64065 8.4075L0.237918 8.28477ZM2.8749 8.51548V7.10372V5.69195L4.27764 5.81467L5.68769 5.93804V7.3498V8.76157L4.27764 8.6382L2.8749 8.51548ZM8.14888 8.97689V7.56513V6.15336L9.55161 6.27609L10.9617 6.39945V7.81121V9.22298L9.55161 9.09962L8.14888 8.97689ZM10.7859 9.2076V7.79583V6.38407L12.1886 6.50679L13.5986 6.63016V8.04192V9.45369L12.1886 9.33032L10.7859 9.2076ZM0.237918 6.52007V5.1083V3.69654L1.64065 3.81926L3.0507 3.94262V5.35439V6.76615L1.64065 6.64279L0.237918 6.52007ZM1.99591 6.67387V5.26211V3.85034L3.39864 3.97306L4.80869 4.09643V5.50819V6.91996L3.39864 6.79659L1.99591 6.67387ZM9.02787 7.28909V5.87733V4.46556L10.4306 4.58828L11.8407 4.71165V6.12341V7.53518L10.4306 7.41181L9.02787 7.28909ZM10.7859 7.44289V6.03113V4.61936L12.1886 4.74209L13.5986 4.86545V6.27722V7.68898L12.1886 7.56562L10.7859 7.44289ZM0.237918 4.75536V3.3436V1.93183L1.64065 2.05455L3.0507 2.17792V3.58968V5.00145L1.64065 4.87808L0.237918 4.75536ZM10.7859 5.67819V4.26642V2.85466L12.1886 2.97738L13.5986 3.10074V4.51251V5.92427L12.1886 5.80091L10.7859 5.67819ZM0.237918 2.99066V1.57889V0.167126L1.64065 0.289849L3.0507 0.413213V1.82498V3.23674L1.64065 3.11338L0.237918 2.99066ZM10.7859 3.91348V2.50172V1.08995L12.1886 1.21267L13.5986 1.33604V2.7478V4.15957L12.1886 4.0362L10.7859 3.91348ZM17.8144 22.1755V20.7637V19.3519L19.2171 19.4747L20.6272 19.598V21.0098V22.4215L19.2171 22.2982L17.8144 22.1755ZM19.5724 22.3293V20.9175V19.5057L20.9751 19.6285L22.3852 19.7518V21.1636V22.5753L20.9751 22.452L19.5724 22.3293ZM21.3304 22.4831V21.0713V19.6595L22.7331 19.7823L24.1432 19.9056V21.3174V22.7292L22.7331 22.6058L21.3304 22.4831ZM16.0564 20.2569V18.8452V17.4334L17.4591 17.5561L18.8692 17.6795V19.0913V20.503L17.4591 20.3797L16.0564 20.2569ZM23.0884 20.8722V19.4604V18.0486L24.4911 18.1714L25.9011 18.2947V19.7065V21.1183L24.4911 20.9949L23.0884 20.8722ZM16.0564 18.4922V17.0805V15.6687L17.4591 15.7914L18.8692 15.9148V17.3266V18.7383L17.4591 18.615L16.0564 18.4922ZM23.0884 19.1075V17.6957V16.2839L24.4911 16.4067L25.9011 16.53V17.9418V19.3535L24.4911 19.2302L23.0884 19.1075ZM16.0564 16.7275V15.3158V13.904L17.4591 14.0267L18.8692 14.1501V15.5619V16.9736L17.4591 16.8503L16.0564 16.7275ZM23.0884 17.3428V15.931V14.5192L24.4911 14.6419L25.9011 14.7653V16.1771V17.5888L24.4911 17.4655L23.0884 17.3428ZM16.0564 14.9628V13.5511V12.1393L17.4591 12.262L18.8692 12.3854V13.7972V15.2089L17.4591 15.0856L16.0564 14.9628ZM23.0884 15.578V14.1663V12.7545L24.4911 12.8772L25.9011 13.0006V14.4124V15.8241L24.4911 15.7008L23.0884 15.578ZM16.0564 13.1981V11.7864V10.3746L17.4591 10.4973L18.8692 10.6207V12.0324V13.4442L17.4591 13.3208L16.0564 13.1981ZM23.0884 13.8133V12.4016V10.9898L24.4911 11.1125L25.9011 11.2359V12.6477V14.0594L24.4911 13.9361L23.0884 13.8133ZM16.0564 11.4334V10.0217V8.60989L17.4591 8.73261L18.8692 8.85597V10.2677V11.6795L17.4591 11.5561L16.0564 11.4334ZM23.0884 12.0486V10.6369V9.2251L24.4911 9.34783L25.9011 9.47119V10.883V12.2947L24.4911 12.1714L23.0884 12.0486ZM16.0564 9.66871V8.25695V6.84518L17.4591 6.9679L18.8692 7.09127V8.50303V9.9148L17.4591 9.79143L16.0564 9.66871ZM23.0884 10.2839V8.87216V7.4604L24.4911 7.58312L25.9011 7.70649V9.11825V10.53L24.4911 10.4067L23.0884 10.2839ZM16.0564 7.90401V6.49224V5.08048L17.4591 5.2032L18.8692 5.32656V6.73833V8.15009L17.4591 8.02673L16.0564 7.90401ZM23.0884 8.51922V7.10746V5.69569L24.4911 5.81842L25.9011 5.94178V7.35355V8.76531L24.4911 8.64195L23.0884 8.51922ZM16.0564 6.1393V4.72753V3.31577L17.4591 3.43849L18.8692 3.56186V4.97362V6.38539L17.4591 6.26202L16.0564 6.1393ZM23.0884 6.75452V5.34275V3.93099L24.4911 4.05371L25.9011 4.17707V5.58884V7.0006L24.4911 6.87724L23.0884 6.75452ZM16.0564 4.37459V2.96283V1.55106L17.4591 1.67379L18.8692 1.79715V3.20892V4.62068L17.4591 4.49732L16.0564 4.37459ZM23.0884 4.98981V3.57805V2.16628L24.4911 2.289L25.9011 2.41237V3.82413V5.2359L24.4911 5.11253L23.0884 4.98981ZM30.1306 23.253V21.8412V20.4295L31.5334 20.5522L32.9434 20.6755V22.0873V23.4991L31.5334 23.3757L30.1306 23.253ZM30.1306 21.4883V20.0765V18.6648L31.5334 18.7875L32.9434 18.9108V20.3226V21.7344L31.5334 21.611L30.1306 21.4883ZM30.1306 19.7236V18.3118V16.9L31.5334 17.0228L32.9434 17.1461V18.5579V19.9697L31.5334 19.8463L30.1306 19.7236ZM30.1306 17.9589V16.5471V15.1353L31.5334 15.2581L32.9434 15.3814V16.7932V18.205L31.5334 18.0816L30.1306 17.9589ZM30.1306 16.1942V14.7824V13.3706L31.5334 13.4934L32.9434 13.6167V15.0285V16.4403L31.5334 16.3169L30.1306 16.1942ZM30.1306 14.4295V13.0177V11.6059L31.5334 11.7287L32.9434 11.852V13.2638V14.6755L31.5334 14.5522L30.1306 14.4295ZM30.1306 12.6648V11.253V9.84122L31.5334 9.96395L32.9434 10.0873V11.4991V12.9108L31.5334 12.7875L30.1306 12.6648ZM30.1306 10.9V9.48828V8.07652L31.5334 8.19924L32.9434 8.3226V9.73437V11.1461L31.5334 11.0228L30.1306 10.9ZM30.1306 9.13534V7.72358V6.31181L31.5334 6.43453L32.9434 6.5579V7.96966V9.38143L31.5334 9.25806L30.1306 9.13534ZM30.1306 7.37063V5.95887V4.5471L31.5334 4.66983L32.9434 4.79319V6.20496V7.61672L31.5334 7.49336L30.1306 7.37063ZM26.6146 5.29832V3.88656V2.47479L28.0174 2.59751L29.4274 2.72088V4.13264V5.54441L28.0174 5.42104L26.6146 5.29832ZM28.3726 5.45212V4.04036V2.62859L29.7754 2.75132L31.1854 2.87468V4.28645V5.69821L29.7754 5.57485L28.3726 5.45212ZM30.1306 5.60593V4.19416V2.7824L31.5334 2.90512L32.9434 3.02849V4.44025V5.85202L31.5334 5.72865L30.1306 5.60593ZM31.8886 5.75973V4.34797V2.9362L33.2913 3.05893L34.7014 3.18229V4.59405V6.00582L33.2913 5.88246L31.8886 5.75973ZM33.6466 5.91354V4.50177V3.09001L35.0493 3.21273L36.4594 3.33609V4.74786V6.15962L35.0493 6.03626L33.6466 5.91354ZM38.9154 24.0216V22.6098V21.198L40.3182 21.3208L41.7282 21.4441V22.8559V24.2676L40.3182 24.1443L38.9154 24.0216ZM40.6734 24.1754V22.7636V21.3518L42.0762 21.4746L43.4862 21.5979V23.0097V24.4215L42.0762 24.2981L40.6734 24.1754ZM44.1894 24.483V23.0712V21.6594L45.5921 21.7822L47.0022 21.9055V23.3173V24.7291L45.5921 24.6057L44.1894 24.483ZM37.1574 22.103V20.6913V19.2795L38.5602 19.4022L39.9702 19.5256V20.9374V22.3491L38.5602 22.2258L37.1574 22.103ZM42.4314 22.5645V21.1527V19.7409L43.8341 19.8637L45.2442 19.987V21.3988V22.8105L43.8341 22.6872L42.4314 22.5645ZM44.1894 22.7183V21.3065V19.8947L45.5921 20.0175L47.0022 20.1408V21.5526V22.9644L45.5921 22.841L44.1894 22.7183ZM37.1574 20.3383V18.9266V17.5148L38.5602 17.6375L39.9702 17.7609V19.1727V20.5844L38.5602 20.4611L37.1574 20.3383ZM44.1894 20.9536V19.5418V18.13L45.5921 18.2528L47.0022 18.3761V19.7879V21.1996L45.5921 21.0763L44.1894 20.9536ZM37.1574 18.5736V17.1619V15.7501L38.5602 15.8728L39.9702 15.9962V17.408V18.8197L38.5602 18.6964L37.1574 18.5736ZM44.1894 19.1889V17.7771V16.3653L45.5921 16.488L47.0022 16.6114V18.0232V19.4349L45.5921 19.3116L44.1894 19.1889ZM37.1574 16.8089V15.3972V13.9854L38.5602 14.1081L39.9702 14.2315V15.6433V17.055L38.5602 16.9317L37.1574 16.8089ZM44.1894 17.4241V16.0124V14.6006L45.5921 14.7233L47.0022 14.8467V16.2585V17.6702L45.5921 17.5469L44.1894 17.4241ZM37.1574 15.0442V13.6325V12.2207L38.5602 12.3434L39.9702 12.4668V13.8785V15.2903L38.5602 15.1669L37.1574 15.0442ZM44.1894 15.6594V14.2477V12.8359L45.5921 12.9586L47.0022 13.082V14.4938V15.9055L45.5921 15.7822L44.1894 15.6594ZM37.1574 13.2795V11.8678V10.456L38.5602 10.5787L39.9702 10.7021V12.1138V13.5256L38.5602 13.4022L37.1574 13.2795ZM44.1894 13.8947V12.483V11.0712L45.5921 11.1939L47.0022 11.3173V12.7291V14.1408L45.5921 14.0175L44.1894 13.8947ZM37.1574 11.5148V10.103V8.69128L38.5602 8.81401L39.9702 8.93737V10.3491V11.7609L38.5602 11.6375L37.1574 11.5148ZM44.1894 12.13V10.7183V9.3065L45.5921 9.42922L47.0022 9.55259V10.9644V12.3761L45.5921 12.2528L44.1894 12.13ZM52.1107 25.176V23.7642V22.3525L53.5134 22.4752L54.9234 22.5985V24.0103V25.4221L53.5134 25.2987L52.1107 25.176ZM53.8687 25.3298V23.918V22.5063L55.2714 22.629L56.6814 22.7524V24.1641V25.5759L55.2714 25.4525L53.8687 25.3298ZM50.3527 23.2575V21.8457V20.434L51.7554 20.5567L53.1655 20.68V22.0918V23.5036L51.7554 23.3802L50.3527 23.2575ZM50.3527 21.4928V20.081V18.6692L51.7554 18.792L53.1655 18.9153V20.3271V21.7389L51.7554 21.6155L50.3527 21.4928ZM50.3527 19.7281V18.3163V16.9045L51.7554 17.0273L53.1655 17.1506V18.5624V19.9742L51.7554 19.8508L50.3527 19.7281ZM50.3527 17.9634V16.5516V15.1398L51.7554 15.2626L53.1655 15.3859V16.7977V18.2095L51.7554 18.0861L50.3527 17.9634ZM50.3527 16.1987V14.7869V13.3751L51.7554 13.4979L53.1655 13.6212V15.033V16.4447L51.7554 16.3214L50.3527 16.1987ZM50.3527 14.434V13.0222V11.6104L51.7554 11.7331L53.1655 11.8565V13.2683V14.68L51.7554 14.5567L50.3527 14.434ZM48.5947 12.5154V11.1037V9.69191L49.9974 9.81464L51.4075 9.938V11.3498V12.7615L49.9974 12.6382L48.5947 12.5154ZM50.3527 12.6692V11.2575V9.84572L51.7554 9.96844L53.1655 10.0918V11.5036V12.9153L51.7554 12.792L50.3527 12.6692ZM52.1107 12.8231V11.4113V9.99952L53.5134 10.1222L54.9234 10.2456V11.6574V13.0691L53.5134 12.9458L52.1107 12.8231ZM53.8687 12.9769V11.5651V10.1533L55.2714 10.276L56.6814 10.3994V11.8112V13.2229L55.2714 13.0996L53.8687 12.9769ZM50.3527 10.9045V9.49278V8.08101L51.7554 8.20373L53.1655 8.3271V9.73886V11.1506L51.7554 11.0273L50.3527 10.9045ZM50.3527 9.13983V7.72807V6.3163L51.7554 6.43903L53.1655 6.56239V7.97416V9.38592L51.7554 9.26256L50.3527 9.13983ZM60.0165 25.8677V24.4559V23.0441L61.4192 23.1669L62.8293 23.2902V24.702V26.1137L61.4192 25.9904L60.0165 25.8677ZM61.7745 26.0215V24.6097V23.1979L63.1772 23.3207L64.5872 23.444V24.8558V26.2676L63.1772 26.1442L61.7745 26.0215ZM63.5325 26.1753V24.7635V23.3517L64.9352 23.4745L66.3452 23.5978V25.0096V26.4214L64.9352 26.298L63.5325 26.1753ZM58.2585 23.9492V22.5374V21.1256L59.6612 21.2483L61.0713 21.3717V22.7835V24.1952L59.6612 24.0719L58.2585 23.9492ZM65.2904 24.5644V23.1526V21.7408L66.6932 21.8636L68.1032 21.9869V23.3987V24.8105L66.6932 24.6871L65.2904 24.5644ZM58.2585 22.1844V20.7727V19.3609L59.6612 19.4836L61.0713 19.607V21.0188V22.4305L59.6612 22.3072L58.2585 22.1844ZM65.2904 22.7997V21.3879V19.9761L66.6932 20.0989L68.1032 20.2222V21.634V23.0457L66.6932 22.9224L65.2904 22.7997ZM58.2585 20.4197V19.008V17.5962L59.6612 17.7189L61.0713 17.8423V19.2541V20.6658L59.6612 20.5425L58.2585 20.4197ZM65.2904 21.035V19.6232V18.2114L66.6932 18.3341L68.1032 18.4575V19.8693V21.281L66.6932 21.1577L65.2904 21.035ZM58.2585 18.655V17.2433V15.8315L59.6612 15.9542L61.0713 16.0776V17.4894V18.9011L59.6612 18.7778L58.2585 18.655ZM65.2904 19.2702V17.8585V16.4467L66.6932 16.5694L68.1032 16.6928V18.1046V19.5163L66.6932 19.393L65.2904 19.2702ZM58.2585 16.8903V15.4786V14.0668L59.6612 14.1895L61.0713 14.3129V15.7246V17.1364L59.6612 17.013L58.2585 16.8903ZM65.2904 17.5055V16.0938V14.682L66.6932 14.8047L68.1032 14.9281V16.3399V17.7516L66.6932 17.6283L65.2904 17.5055ZM58.2585 15.1256V13.7139V12.3021L59.6612 12.4248L61.0713 12.5482V13.9599V15.3717L59.6612 15.2483L58.2585 15.1256ZM65.2904 15.7408V14.3291V12.9173L66.6932 13.04L68.1032 13.1634V14.5752V15.9869L66.6932 15.8636L65.2904 15.7408ZM60.0165 13.5147V12.103V10.6912L61.4192 10.8139L62.8293 10.9373V12.349V13.7608L61.4192 13.6374L60.0165 13.5147ZM61.7745 13.6685V12.2568V10.845L63.1772 10.9677L64.5872 11.0911V12.5028V13.9146L63.1772 13.7912L61.7745 13.6685ZM63.5325 13.8223V12.4106V10.9988L64.9352 11.1215L66.3452 11.2449V12.6566V14.0684L64.9352 13.9451L63.5325 13.8223ZM70.5747 26.7914V25.3796V23.9679L71.9774 24.0906L73.3875 24.2139V25.6257V27.0375L71.9774 26.9141L70.5747 26.7914ZM70.5747 25.0267V23.6149V22.2032L71.9774 22.3259L73.3875 22.4492V23.861V25.2728L71.9774 25.1494L70.5747 25.0267ZM70.5747 23.262V21.8502V20.4384L71.9774 20.5612L73.3875 20.6845V22.0963V23.5081L71.9774 23.3847L70.5747 23.262ZM70.5747 21.4973V20.0855V18.6737L71.9774 18.7965L73.3875 18.9198V20.3316V21.7434L71.9774 21.62L70.5747 21.4973ZM70.5747 19.7326V18.3208V16.909L71.9774 17.0318L73.3875 17.1551V18.5669V19.9787L71.9774 19.8553L70.5747 19.7326ZM70.5747 17.9679V16.5561V15.1443L71.9774 15.2671L73.3875 15.3904V16.8022V18.2139L71.9774 18.0906L70.5747 17.9679ZM75.8487 18.4293V17.0175V15.6057L77.2514 15.7285L78.6615 15.8518V17.2636V18.6754L77.2514 18.552L75.8487 18.4293ZM70.5747 16.2032V14.7914V13.3796L71.9774 13.5023L73.3875 13.6257V15.0375V16.4492L71.9774 16.3259L70.5747 16.2032ZM75.8487 16.6646V15.2528V13.841L77.2514 13.9638L78.6615 14.0871V15.4989V16.9107L77.2514 16.7873L75.8487 16.6646ZM72.3327 14.5922V13.1805V11.7687L73.7354 11.8914L75.1455 12.0148V13.4266V14.8383L73.7354 14.715L72.3327 14.5922ZM74.0907 14.7461V13.3343V11.9225L75.4934 12.0452L76.9035 12.1686V13.5804V14.9921L75.4934 14.8688L74.0907 14.7461Z" fill="#FF5733"/>
</svg>
